<?xml version="1.0" encoding="utf-8" standalone="no"?>
<!DOCTYPE svg PUBLIC "-//W3C//DTD SVG 1.1//EN"
  "http://www.w3.org/Graphics/SVG/1.1/DTD/svg11.dtd">
<!-- Created with matplotlib (http://matplotlib.org/) -->
<svg height="497pt" version="1.1" viewBox="0 0 700 497" width="700pt" xmlns="http://www.w3.org/2000/svg" xmlns:xlink="http://www.w3.org/1999/xlink">
 <defs>
  <style type="text/css">
*{stroke-linecap:butt;stroke-linejoin:round;}
  </style>
 </defs>
 <g id="figure_1">
  <g id="patch_1">
   <path d="M 0 497.7907 
L 700.8625 497.7907 
L 700.8625 0 
L 0 0 
z
" style="fill:none;"/>
  </g>
  <g id="axes_1">
   <g id="patch_2">
    <path d="M 20.5625 336.86 
L 690.1625 336.86 
L 690.1625 10.7 
L 20.5625 10.7 
z
" style="fill:none;"/>
   </g>
   <g id="patch_3">
    <path clip-path="url(#p646f4af9ec)" d="M 50.998864 336.86 
L 75.593905 336.86 
L 75.593905 26.231429 
L 50.998864 26.231429 
z
" style="fill:#808080;"/>
   </g>
   <g id="patch_4">
    <path clip-path="url(#p646f4af9ec)" d="M 81.742665 336.86 
L 106.337707 336.86 
L 106.337707 142.717143 
L 81.742665 142.717143 
z
" style="fill:#808080;"/>
   </g>
   <g id="patch_5">
    <path clip-path="url(#p646f4af9ec)" d="M 112.486467 336.86 
L 137.081508 336.86 
L 137.081508 181.545714 
L 112.486467 181.545714 
z
" style="fill:#808080;"/>
   </g>
   <g id="patch_6">
    <path clip-path="url(#p646f4af9ec)" d="M 143.230269 336.86 
L 167.82531 336.86 
L 167.82531 181.545714 
L 143.230269 181.545714 
z
" style="fill:#808080;"/>
   </g>
   <g id="patch_7">
    <path clip-path="url(#p646f4af9ec)" d="M 173.97407 336.86 
L 198.569112 336.86 
L 198.569112 181.545714 
L 173.97407 181.545714 
z
" style="fill:#808080;"/>
   </g>
   <g id="patch_8">
    <path clip-path="url(#p646f4af9ec)" d="M 204.717872 336.86 
L 229.312913 336.86 
L 229.312913 220.374286 
L 204.717872 220.374286 
z
" style="fill:#808080;"/>
   </g>
   <g id="patch_9">
    <path clip-path="url(#p646f4af9ec)" d="M 235.461674 336.86 
L 260.056715 336.86 
L 260.056715 220.374286 
L 235.461674 220.374286 
z
" style="fill:#808080;"/>
   </g>
   <g id="patch_10">
    <path clip-path="url(#p646f4af9ec)" d="M 266.205475 336.86 
L 290.800517 336.86 
L 290.800517 220.374286 
L 266.205475 220.374286 
z
" style="fill:#808080;"/>
   </g>
   <g id="patch_11">
    <path clip-path="url(#p646f4af9ec)" d="M 296.949277 336.86 
L 321.544318 336.86 
L 321.544318 220.374286 
L 296.949277 220.374286 
z
" style="fill:#808080;"/>
   </g>
   <g id="patch_12">
    <path clip-path="url(#p646f4af9ec)" d="M 327.693079 336.86 
L 352.28812 336.86 
L 352.28812 220.374286 
L 327.693079 220.374286 
z
" style="fill:#808080;"/>
   </g>
   <g id="patch_13">
    <path clip-path="url(#p646f4af9ec)" d="M 358.43688 336.86 
L 383.031921 336.86 
L 383.031921 220.374286 
L 358.43688 220.374286 
z
" style="fill:#808080;"/>
   </g>
   <g id="patch_14">
    <path clip-path="url(#p646f4af9ec)" d="M 389.180682 336.86 
L 413.775723 336.86 
L 413.775723 220.374286 
L 389.180682 220.374286 
z
" style="fill:#808080;"/>
   </g>
   <g id="patch_15">
    <path clip-path="url(#p646f4af9ec)" d="M 419.924483 336.86 
L 444.519525 336.86 
L 444.519525 259.202857 
L 419.924483 259.202857 
z
" style="fill:#808080;"/>
   </g>
   <g id="patch_16">
    <path clip-path="url(#p646f4af9ec)" d="M 450.668285 336.86 
L 475.263326 336.86 
L 475.263326 259.202857 
L 450.668285 259.202857 
z
" style="fill:#808080;"/>
   </g>
   <g id="patch_17">
    <path clip-path="url(#p646f4af9ec)" d="M 481.412087 336.86 
L 506.007128 336.86 
L 506.007128 259.202857 
L 481.412087 259.202857 
z
" style="fill:#808080;"/>
   </g>
   <g id="patch_18">
    <path clip-path="url(#p646f4af9ec)" d="M 512.155888 336.86 
L 536.75093 336.86 
L 536.75093 259.202857 
L 512.155888 259.202857 
z
" style="fill:#808080;"/>
   </g>
   <g id="patch_19">
    <path clip-path="url(#p646f4af9ec)" d="M 542.89969 336.86 
L 567.494731 336.86 
L 567.494731 259.202857 
L 542.89969 259.202857 
z
" style="fill:#808080;"/>
   </g>
   <g id="patch_20">
    <path clip-path="url(#p646f4af9ec)" d="M 573.643492 336.86 
L 598.238533 336.86 
L 598.238533 259.202857 
L 573.643492 259.202857 
z
" style="fill:#808080;"/>
   </g>
   <g id="patch_21">
    <path clip-path="url(#p646f4af9ec)" d="M 604.387293 336.86 
L 628.982335 336.86 
L 628.982335 259.202857 
L 604.387293 259.202857 
z
" style="fill:#808080;"/>
   </g>
   <g id="patch_22">
    <path clip-path="url(#p646f4af9ec)" d="M 635.131095 336.86 
L 659.726136 336.86 
L 659.726136 259.202857 
L 635.131095 259.202857 
z
" style="fill:#808080;"/>
   </g>
   <g id="matplotlib.axis_1">
    <g id="xtick_1">
     <g id="line2d_1">
      <defs>
       <path d="M 0 0 
L 0 3.5 
" id="m4b6123f228" style="stroke:#000000;stroke-width:0.8;"/>
      </defs>
      <g>
       <use style="stroke:#000000;stroke-width:0.8;" x="63.296384" xlink:href="#m4b6123f228" y="336.86"/>
      </g>
     </g>
     <g id="text_1">
      <!-- Tongji Univ -->
      <defs>
       <path d="M -0.296875 72.90625 
L 61.375 72.90625 
L 61.375 64.59375 
L 35.5 64.59375 
L 35.5 0 
L 25.59375 0 
L 25.59375 64.59375 
L -0.296875 64.59375 
z
" id="DejaVuSans-54"/>
       <path d="M 30.609375 48.390625 
Q 23.390625 48.390625 19.1875 42.75 
Q 14.984375 37.109375 14.984375 27.296875 
Q 14.984375 17.484375 19.15625 11.84375 
Q 23.34375 6.203125 30.609375 6.203125 
Q 37.796875 6.203125 41.984375 11.859375 
Q 46.1875 17.53125 46.1875 27.296875 
Q 46.1875 37.015625 41.984375 42.703125 
Q 37.796875 48.390625 30.609375 48.390625 
z
M 30.609375 56 
Q 42.328125 56 49.015625 48.375 
Q 55.71875 40.765625 55.71875 27.296875 
Q 55.71875 13.875 49.015625 6.21875 
Q 42.328125 -1.421875 30.609375 -1.421875 
Q 18.84375 -1.421875 12.171875 6.21875 
Q 5.515625 13.875 5.515625 27.296875 
Q 5.515625 40.765625 12.171875 48.375 
Q 18.84375 56 30.609375 56 
z
" id="DejaVuSans-6f"/>
       <path d="M 54.890625 33.015625 
L 54.890625 0 
L 45.90625 0 
L 45.90625 32.71875 
Q 45.90625 40.484375 42.875 44.328125 
Q 39.84375 48.1875 33.796875 48.1875 
Q 26.515625 48.1875 22.3125 43.546875 
Q 18.109375 38.921875 18.109375 30.90625 
L 18.109375 0 
L 9.078125 0 
L 9.078125 54.6875 
L 18.109375 54.6875 
L 18.109375 46.1875 
Q 21.34375 51.125 25.703125 53.5625 
Q 30.078125 56 35.796875 56 
Q 45.21875 56 50.046875 50.171875 
Q 54.890625 44.34375 54.890625 33.015625 
z
" id="DejaVuSans-6e"/>
       <path d="M 45.40625 27.984375 
Q 45.40625 37.75 41.375 43.109375 
Q 37.359375 48.484375 30.078125 48.484375 
Q 22.859375 48.484375 18.828125 43.109375 
Q 14.796875 37.75 14.796875 27.984375 
Q 14.796875 18.265625 18.828125 12.890625 
Q 22.859375 7.515625 30.078125 7.515625 
Q 37.359375 7.515625 41.375 12.890625 
Q 45.40625 18.265625 45.40625 27.984375 
z
M 54.390625 6.78125 
Q 54.390625 -7.171875 48.1875 -13.984375 
Q 42 -20.796875 29.203125 -20.796875 
Q 24.46875 -20.796875 20.265625 -20.09375 
Q 16.0625 -19.390625 12.109375 -17.921875 
L 12.109375 -9.1875 
Q 16.0625 -11.328125 19.921875 -12.34375 
Q 23.78125 -13.375 27.78125 -13.375 
Q 36.625 -13.375 41.015625 -8.765625 
Q 45.40625 -4.15625 45.40625 5.171875 
L 45.40625 9.625 
Q 42.625 4.78125 38.28125 2.390625 
Q 33.9375 0 27.875 0 
Q 17.828125 0 11.671875 7.65625 
Q 5.515625 15.328125 5.515625 27.984375 
Q 5.515625 40.671875 11.671875 48.328125 
Q 17.828125 56 27.875 56 
Q 33.9375 56 38.28125 53.609375 
Q 42.625 51.21875 45.40625 46.390625 
L 45.40625 54.6875 
L 54.390625 54.6875 
z
" id="DejaVuSans-67"/>
       <path d="M 9.421875 54.6875 
L 18.40625 54.6875 
L 18.40625 -0.984375 
Q 18.40625 -11.421875 14.421875 -16.109375 
Q 10.453125 -20.796875 1.609375 -20.796875 
L -1.8125 -20.796875 
L -1.8125 -13.1875 
L 0.59375 -13.1875 
Q 5.71875 -13.1875 7.5625 -10.8125 
Q 9.421875 -8.453125 9.421875 -0.984375 
z
M 9.421875 75.984375 
L 18.40625 75.984375 
L 18.40625 64.59375 
L 9.421875 64.59375 
z
" id="DejaVuSans-6a"/>
       <path d="M 9.421875 54.6875 
L 18.40625 54.6875 
L 18.40625 0 
L 9.421875 0 
z
M 9.421875 75.984375 
L 18.40625 75.984375 
L 18.40625 64.59375 
L 9.421875 64.59375 
z
" id="DejaVuSans-69"/>
       <path id="DejaVuSans-20"/>
       <path d="M 8.6875 72.90625 
L 18.609375 72.90625 
L 18.609375 28.609375 
Q 18.609375 16.890625 22.84375 11.734375 
Q 27.09375 6.59375 36.625 6.59375 
Q 46.09375 6.59375 50.34375 11.734375 
Q 54.59375 16.890625 54.59375 28.609375 
L 54.59375 72.90625 
L 64.5 72.90625 
L 64.5 27.390625 
Q 64.5 13.140625 57.4375 5.859375 
Q 50.390625 -1.421875 36.625 -1.421875 
Q 22.796875 -1.421875 15.734375 5.859375 
Q 8.6875 13.140625 8.6875 27.390625 
z
" id="DejaVuSans-55"/>
       <path d="M 2.984375 54.6875 
L 12.5 54.6875 
L 29.59375 8.796875 
L 46.6875 54.6875 
L 56.203125 54.6875 
L 35.6875 0 
L 23.484375 0 
z
" id="DejaVuSans-76"/>
      </defs>
      <g transform="translate(51.131398 346.458819)rotate(-290)scale(0.1 -0.1)">
       <use xlink:href="#DejaVuSans-54"/>
       <use x="60.818359" xlink:href="#DejaVuSans-6f"/>
       <use x="122" xlink:href="#DejaVuSans-6e"/>
       <use x="185.378906" xlink:href="#DejaVuSans-67"/>
       <use x="248.855469" xlink:href="#DejaVuSans-6a"/>
       <use x="276.638672" xlink:href="#DejaVuSans-69"/>
       <use x="304.421875" xlink:href="#DejaVuSans-20"/>
       <use x="336.208984" xlink:href="#DejaVuSans-55"/>
       <use x="409.402344" xlink:href="#DejaVuSans-6e"/>
       <use x="472.78125" xlink:href="#DejaVuSans-69"/>
       <use x="500.564453" xlink:href="#DejaVuSans-76"/>
      </g>
     </g>
    </g>
    <g id="xtick_2">
     <g id="line2d_2">
      <g>
       <use style="stroke:#000000;stroke-width:0.8;" x="94.040186" xlink:href="#m4b6123f228" y="336.86"/>
      </g>
     </g>
     <g id="text_2">
      <!-- Harbin Inst Technol -->
      <defs>
       <path d="M 9.8125 72.90625 
L 19.671875 72.90625 
L 19.671875 43.015625 
L 55.515625 43.015625 
L 55.515625 72.90625 
L 65.375 72.90625 
L 65.375 0 
L 55.515625 0 
L 55.515625 34.71875 
L 19.671875 34.71875 
L 19.671875 0 
L 9.8125 0 
z
" id="DejaVuSans-48"/>
       <path d="M 34.28125 27.484375 
Q 23.390625 27.484375 19.1875 25 
Q 14.984375 22.515625 14.984375 16.5 
Q 14.984375 11.71875 18.140625 8.90625 
Q 21.296875 6.109375 26.703125 6.109375 
Q 34.1875 6.109375 38.703125 11.40625 
Q 43.21875 16.703125 43.21875 25.484375 
L 43.21875 27.484375 
z
M 52.203125 31.203125 
L 52.203125 0 
L 43.21875 0 
L 43.21875 8.296875 
Q 40.140625 3.328125 35.546875 0.953125 
Q 30.953125 -1.421875 24.3125 -1.421875 
Q 15.921875 -1.421875 10.953125 3.296875 
Q 6 8.015625 6 15.921875 
Q 6 25.140625 12.171875 29.828125 
Q 18.359375 34.515625 30.609375 34.515625 
L 43.21875 34.515625 
L 43.21875 35.40625 
Q 43.21875 41.609375 39.140625 45 
Q 35.0625 48.390625 27.6875 48.390625 
Q 23 48.390625 18.546875 47.265625 
Q 14.109375 46.140625 10.015625 43.890625 
L 10.015625 52.203125 
Q 14.9375 54.109375 19.578125 55.046875 
Q 24.21875 56 28.609375 56 
Q 40.484375 56 46.34375 49.84375 
Q 52.203125 43.703125 52.203125 31.203125 
z
" id="DejaVuSans-61"/>
       <path d="M 41.109375 46.296875 
Q 39.59375 47.171875 37.8125 47.578125 
Q 36.03125 48 33.890625 48 
Q 26.265625 48 22.1875 43.046875 
Q 18.109375 38.09375 18.109375 28.8125 
L 18.109375 0 
L 9.078125 0 
L 9.078125 54.6875 
L 18.109375 54.6875 
L 18.109375 46.1875 
Q 20.953125 51.171875 25.484375 53.578125 
Q 30.03125 56 36.53125 56 
Q 37.453125 56 38.578125 55.875 
Q 39.703125 55.765625 41.0625 55.515625 
z
" id="DejaVuSans-72"/>
       <path d="M 48.6875 27.296875 
Q 48.6875 37.203125 44.609375 42.84375 
Q 40.53125 48.484375 33.40625 48.484375 
Q 26.265625 48.484375 22.1875 42.84375 
Q 18.109375 37.203125 18.109375 27.296875 
Q 18.109375 17.390625 22.1875 11.75 
Q 26.265625 6.109375 33.40625 6.109375 
Q 40.53125 6.109375 44.609375 11.75 
Q 48.6875 17.390625 48.6875 27.296875 
z
M 18.109375 46.390625 
Q 20.953125 51.265625 25.265625 53.625 
Q 29.59375 56 35.59375 56 
Q 45.5625 56 51.78125 48.09375 
Q 58.015625 40.1875 58.015625 27.296875 
Q 58.015625 14.40625 51.78125 6.484375 
Q 45.5625 -1.421875 35.59375 -1.421875 
Q 29.59375 -1.421875 25.265625 0.953125 
Q 20.953125 3.328125 18.109375 8.203125 
L 18.109375 0 
L 9.078125 0 
L 9.078125 75.984375 
L 18.109375 75.984375 
z
" id="DejaVuSans-62"/>
       <path d="M 9.8125 72.90625 
L 19.671875 72.90625 
L 19.671875 0 
L 9.8125 0 
z
" id="DejaVuSans-49"/>
       <path d="M 44.28125 53.078125 
L 44.28125 44.578125 
Q 40.484375 46.53125 36.375 47.5 
Q 32.28125 48.484375 27.875 48.484375 
Q 21.1875 48.484375 17.84375 46.4375 
Q 14.5 44.390625 14.5 40.28125 
Q 14.5 37.15625 16.890625 35.375 
Q 19.28125 33.59375 26.515625 31.984375 
L 29.59375 31.296875 
Q 39.15625 29.25 43.1875 25.515625 
Q 47.21875 21.78125 47.21875 15.09375 
Q 47.21875 7.46875 41.1875 3.015625 
Q 35.15625 -1.421875 24.609375 -1.421875 
Q 20.21875 -1.421875 15.453125 -0.5625 
Q 10.6875 0.296875 5.421875 2 
L 5.421875 11.28125 
Q 10.40625 8.6875 15.234375 7.390625 
Q 20.0625 6.109375 24.8125 6.109375 
Q 31.15625 6.109375 34.5625 8.28125 
Q 37.984375 10.453125 37.984375 14.40625 
Q 37.984375 18.0625 35.515625 20.015625 
Q 33.0625 21.96875 24.703125 23.78125 
L 21.578125 24.515625 
Q 13.234375 26.265625 9.515625 29.90625 
Q 5.8125 33.546875 5.8125 39.890625 
Q 5.8125 47.609375 11.28125 51.796875 
Q 16.75 56 26.8125 56 
Q 31.78125 56 36.171875 55.265625 
Q 40.578125 54.546875 44.28125 53.078125 
z
" id="DejaVuSans-73"/>
       <path d="M 18.3125 70.21875 
L 18.3125 54.6875 
L 36.8125 54.6875 
L 36.8125 47.703125 
L 18.3125 47.703125 
L 18.3125 18.015625 
Q 18.3125 11.328125 20.140625 9.421875 
Q 21.96875 7.515625 27.59375 7.515625 
L 36.8125 7.515625 
L 36.8125 0 
L 27.59375 0 
Q 17.1875 0 13.234375 3.875 
Q 9.28125 7.765625 9.28125 18.015625 
L 9.28125 47.703125 
L 2.6875 47.703125 
L 2.6875 54.6875 
L 9.28125 54.6875 
L 9.28125 70.21875 
z
" id="DejaVuSans-74"/>
       <path d="M 56.203125 29.59375 
L 56.203125 25.203125 
L 14.890625 25.203125 
Q 15.484375 15.921875 20.484375 11.0625 
Q 25.484375 6.203125 34.421875 6.203125 
Q 39.59375 6.203125 44.453125 7.46875 
Q 49.3125 8.734375 54.109375 11.28125 
L 54.109375 2.78125 
Q 49.265625 0.734375 44.1875 -0.34375 
Q 39.109375 -1.421875 33.890625 -1.421875 
Q 20.796875 -1.421875 13.15625 6.1875 
Q 5.515625 13.8125 5.515625 26.8125 
Q 5.515625 40.234375 12.765625 48.109375 
Q 20.015625 56 32.328125 56 
Q 43.359375 56 49.78125 48.890625 
Q 56.203125 41.796875 56.203125 29.59375 
z
M 47.21875 32.234375 
Q 47.125 39.59375 43.09375 43.984375 
Q 39.0625 48.390625 32.421875 48.390625 
Q 24.90625 48.390625 20.390625 44.140625 
Q 15.875 39.890625 15.1875 32.171875 
z
" id="DejaVuSans-65"/>
       <path d="M 48.78125 52.59375 
L 48.78125 44.1875 
Q 44.96875 46.296875 41.140625 47.34375 
Q 37.3125 48.390625 33.40625 48.390625 
Q 24.65625 48.390625 19.8125 42.84375 
Q 14.984375 37.3125 14.984375 27.296875 
Q 14.984375 17.28125 19.8125 11.734375 
Q 24.65625 6.203125 33.40625 6.203125 
Q 37.3125 6.203125 41.140625 7.25 
Q 44.96875 8.296875 48.78125 10.40625 
L 48.78125 2.09375 
Q 45.015625 0.34375 40.984375 -0.53125 
Q 36.96875 -1.421875 32.421875 -1.421875 
Q 20.0625 -1.421875 12.78125 6.34375 
Q 5.515625 14.109375 5.515625 27.296875 
Q 5.515625 40.671875 12.859375 48.328125 
Q 20.21875 56 33.015625 56 
Q 37.15625 56 41.109375 55.140625 
Q 45.0625 54.296875 48.78125 52.59375 
z
" id="DejaVuSans-63"/>
       <path d="M 54.890625 33.015625 
L 54.890625 0 
L 45.90625 0 
L 45.90625 32.71875 
Q 45.90625 40.484375 42.875 44.328125 
Q 39.84375 48.1875 33.796875 48.1875 
Q 26.515625 48.1875 22.3125 43.546875 
Q 18.109375 38.921875 18.109375 30.90625 
L 18.109375 0 
L 9.078125 0 
L 9.078125 75.984375 
L 18.109375 75.984375 
L 18.109375 46.1875 
Q 21.34375 51.125 25.703125 53.5625 
Q 30.078125 56 35.796875 56 
Q 45.21875 56 50.046875 50.171875 
Q 54.890625 44.34375 54.890625 33.015625 
z
" id="DejaVuSans-68"/>
       <path d="M 9.421875 75.984375 
L 18.40625 75.984375 
L 18.40625 0 
L 9.421875 0 
z
" id="DejaVuSans-6c"/>
      </defs>
      <g transform="translate(74.807674 346.458819)rotate(-290)scale(0.1 -0.1)">
       <use xlink:href="#DejaVuSans-48"/>
       <use x="75.195312" xlink:href="#DejaVuSans-61"/>
       <use x="136.474609" xlink:href="#DejaVuSans-72"/>
       <use x="177.587891" xlink:href="#DejaVuSans-62"/>
       <use x="241.064453" xlink:href="#DejaVuSans-69"/>
       <use x="268.847656" xlink:href="#DejaVuSans-6e"/>
       <use x="332.226562" xlink:href="#DejaVuSans-20"/>
       <use x="364.013672" xlink:href="#DejaVuSans-49"/>
       <use x="393.505859" xlink:href="#DejaVuSans-6e"/>
       <use x="456.884766" xlink:href="#DejaVuSans-73"/>
       <use x="508.984375" xlink:href="#DejaVuSans-74"/>
       <use x="548.193359" xlink:href="#DejaVuSans-20"/>
       <use x="579.980469" xlink:href="#DejaVuSans-54"/>
       <use x="640.798828" xlink:href="#DejaVuSans-65"/>
       <use x="702.322266" xlink:href="#DejaVuSans-63"/>
       <use x="757.302734" xlink:href="#DejaVuSans-68"/>
       <use x="820.681641" xlink:href="#DejaVuSans-6e"/>
       <use x="884.060547" xlink:href="#DejaVuSans-6f"/>
       <use x="945.242188" xlink:href="#DejaVuSans-6c"/>
      </g>
     </g>
    </g>
    <g id="xtick_3">
     <g id="line2d_3">
      <g>
       <use style="stroke:#000000;stroke-width:0.8;" x="124.783988" xlink:href="#m4b6123f228" y="336.86"/>
      </g>
     </g>
     <g id="text_3">
      <!-- Changan Univ -->
      <defs>
       <path d="M 64.40625 67.28125 
L 64.40625 56.890625 
Q 59.421875 61.53125 53.78125 63.8125 
Q 48.140625 66.109375 41.796875 66.109375 
Q 29.296875 66.109375 22.65625 58.46875 
Q 16.015625 50.828125 16.015625 36.375 
Q 16.015625 21.96875 22.65625 14.328125 
Q 29.296875 6.6875 41.796875 6.6875 
Q 48.140625 6.6875 53.78125 8.984375 
Q 59.421875 11.28125 64.40625 15.921875 
L 64.40625 5.609375 
Q 59.234375 2.09375 53.4375 0.328125 
Q 47.65625 -1.421875 41.21875 -1.421875 
Q 24.65625 -1.421875 15.125 8.703125 
Q 5.609375 18.84375 5.609375 36.375 
Q 5.609375 53.953125 15.125 64.078125 
Q 24.65625 74.21875 41.21875 74.21875 
Q 47.75 74.21875 53.53125 72.484375 
Q 59.328125 70.75 64.40625 67.28125 
z
" id="DejaVuSans-43"/>
      </defs>
      <g transform="translate(110.197873 346.458819)rotate(-290)scale(0.1 -0.1)">
       <use xlink:href="#DejaVuSans-43"/>
       <use x="69.824219" xlink:href="#DejaVuSans-68"/>
       <use x="133.203125" xlink:href="#DejaVuSans-61"/>
       <use x="194.482422" xlink:href="#DejaVuSans-6e"/>
       <use x="257.861328" xlink:href="#DejaVuSans-67"/>
       <use x="321.337891" xlink:href="#DejaVuSans-61"/>
       <use x="382.617188" xlink:href="#DejaVuSans-6e"/>
       <use x="445.996094" xlink:href="#DejaVuSans-20"/>
       <use x="477.783203" xlink:href="#DejaVuSans-55"/>
       <use x="550.976562" xlink:href="#DejaVuSans-6e"/>
       <use x="614.355469" xlink:href="#DejaVuSans-69"/>
       <use x="642.138672" xlink:href="#DejaVuSans-76"/>
      </g>
     </g>
    </g>
    <g id="xtick_4">
     <g id="line2d_4">
      <g>
       <use style="stroke:#000000;stroke-width:0.8;" x="155.527789" xlink:href="#m4b6123f228" y="336.86"/>
      </g>
     </g>
     <g id="text_4">
      <!-- Islamic Azad Univ -->
      <defs>
       <path d="M 52 44.1875 
Q 55.375 50.25 60.0625 53.125 
Q 64.75 56 71.09375 56 
Q 79.640625 56 84.28125 50.015625 
Q 88.921875 44.046875 88.921875 33.015625 
L 88.921875 0 
L 79.890625 0 
L 79.890625 32.71875 
Q 79.890625 40.578125 77.09375 44.375 
Q 74.3125 48.1875 68.609375 48.1875 
Q 61.625 48.1875 57.5625 43.546875 
Q 53.515625 38.921875 53.515625 30.90625 
L 53.515625 0 
L 44.484375 0 
L 44.484375 32.71875 
Q 44.484375 40.625 41.703125 44.40625 
Q 38.921875 48.1875 33.109375 48.1875 
Q 26.21875 48.1875 22.15625 43.53125 
Q 18.109375 38.875 18.109375 30.90625 
L 18.109375 0 
L 9.078125 0 
L 9.078125 54.6875 
L 18.109375 54.6875 
L 18.109375 46.1875 
Q 21.1875 51.21875 25.484375 53.609375 
Q 29.78125 56 35.6875 56 
Q 41.65625 56 45.828125 52.96875 
Q 50 49.953125 52 44.1875 
z
" id="DejaVuSans-6d"/>
       <path d="M 34.1875 63.1875 
L 20.796875 26.90625 
L 47.609375 26.90625 
z
M 28.609375 72.90625 
L 39.796875 72.90625 
L 67.578125 0 
L 57.328125 0 
L 50.6875 18.703125 
L 17.828125 18.703125 
L 11.1875 0 
L 0.78125 0 
z
" id="DejaVuSans-41"/>
       <path d="M 5.515625 54.6875 
L 48.1875 54.6875 
L 48.1875 46.484375 
L 14.40625 7.171875 
L 48.1875 7.171875 
L 48.1875 0 
L 4.296875 0 
L 4.296875 8.203125 
L 38.09375 47.515625 
L 5.515625 47.515625 
z
" id="DejaVuSans-7a"/>
       <path d="M 45.40625 46.390625 
L 45.40625 75.984375 
L 54.390625 75.984375 
L 54.390625 0 
L 45.40625 0 
L 45.40625 8.203125 
Q 42.578125 3.328125 38.25 0.953125 
Q 33.9375 -1.421875 27.875 -1.421875 
Q 17.96875 -1.421875 11.734375 6.484375 
Q 5.515625 14.40625 5.515625 27.296875 
Q 5.515625 40.1875 11.734375 48.09375 
Q 17.96875 56 27.875 56 
Q 33.9375 56 38.25 53.625 
Q 42.578125 51.265625 45.40625 46.390625 
z
M 14.796875 27.296875 
Q 14.796875 17.390625 18.875 11.75 
Q 22.953125 6.109375 30.078125 6.109375 
Q 37.203125 6.109375 41.296875 11.75 
Q 45.40625 17.390625 45.40625 27.296875 
Q 45.40625 37.203125 41.296875 42.84375 
Q 37.203125 48.484375 30.078125 48.484375 
Q 22.953125 48.484375 18.875 42.84375 
Q 14.796875 37.203125 14.796875 27.296875 
z
" id="DejaVuSans-64"/>
      </defs>
      <g transform="translate(137.824749 346.458819)rotate(-290)scale(0.1 -0.1)">
       <use xlink:href="#DejaVuSans-49"/>
       <use x="29.492188" xlink:href="#DejaVuSans-73"/>
       <use x="81.591797" xlink:href="#DejaVuSans-6c"/>
       <use x="109.375" xlink:href="#DejaVuSans-61"/>
       <use x="170.654297" xlink:href="#DejaVuSans-6d"/>
       <use x="268.066406" xlink:href="#DejaVuSans-69"/>
       <use x="295.849609" xlink:href="#DejaVuSans-63"/>
       <use x="350.830078" xlink:href="#DejaVuSans-20"/>
       <use x="382.617188" xlink:href="#DejaVuSans-41"/>
       <use x="451.025391" xlink:href="#DejaVuSans-7a"/>
       <use x="503.515625" xlink:href="#DejaVuSans-61"/>
       <use x="564.794922" xlink:href="#DejaVuSans-64"/>
       <use x="628.271484" xlink:href="#DejaVuSans-20"/>
       <use x="660.058594" xlink:href="#DejaVuSans-55"/>
       <use x="733.251953" xlink:href="#DejaVuSans-6e"/>
       <use x="796.630859" xlink:href="#DejaVuSans-69"/>
       <use x="824.414062" xlink:href="#DejaVuSans-76"/>
      </g>
     </g>
    </g>
    <g id="xtick_5">
     <g id="line2d_5">
      <g>
       <use style="stroke:#000000;stroke-width:0.8;" x="186.271591" xlink:href="#m4b6123f228" y="336.86"/>
      </g>
     </g>
     <g id="text_5">
      <!-- Rhein Westfal TH Aachen -->
      <defs>
       <path d="M 44.390625 34.1875 
Q 47.5625 33.109375 50.5625 29.59375 
Q 53.5625 26.078125 56.59375 19.921875 
L 66.609375 0 
L 56 0 
L 46.6875 18.703125 
Q 43.0625 26.03125 39.671875 28.421875 
Q 36.28125 30.8125 30.421875 30.8125 
L 19.671875 30.8125 
L 19.671875 0 
L 9.8125 0 
L 9.8125 72.90625 
L 32.078125 72.90625 
Q 44.578125 72.90625 50.734375 67.671875 
Q 56.890625 62.453125 56.890625 51.90625 
Q 56.890625 45.015625 53.6875 40.46875 
Q 50.484375 35.9375 44.390625 34.1875 
z
M 19.671875 64.796875 
L 19.671875 38.921875 
L 32.078125 38.921875 
Q 39.203125 38.921875 42.84375 42.21875 
Q 46.484375 45.515625 46.484375 51.90625 
Q 46.484375 58.296875 42.84375 61.546875 
Q 39.203125 64.796875 32.078125 64.796875 
z
" id="DejaVuSans-52"/>
       <path d="M 3.328125 72.90625 
L 13.28125 72.90625 
L 28.609375 11.28125 
L 43.890625 72.90625 
L 54.984375 72.90625 
L 70.3125 11.28125 
L 85.59375 72.90625 
L 95.609375 72.90625 
L 77.296875 0 
L 64.890625 0 
L 49.515625 63.28125 
L 33.984375 0 
L 21.578125 0 
z
" id="DejaVuSans-57"/>
       <path d="M 37.109375 75.984375 
L 37.109375 68.5 
L 28.515625 68.5 
Q 23.6875 68.5 21.796875 66.546875 
Q 19.921875 64.59375 19.921875 59.515625 
L 19.921875 54.6875 
L 34.71875 54.6875 
L 34.71875 47.703125 
L 19.921875 47.703125 
L 19.921875 0 
L 10.890625 0 
L 10.890625 47.703125 
L 2.296875 47.703125 
L 2.296875 54.6875 
L 10.890625 54.6875 
L 10.890625 58.5 
Q 10.890625 67.625 15.140625 71.796875 
Q 19.390625 75.984375 28.609375 75.984375 
z
" id="DejaVuSans-66"/>
      </defs>
      <g transform="translate(162.028484 346.458819)rotate(-290)scale(0.1 -0.1)">
       <use xlink:href="#DejaVuSans-52"/>
       <use x="69.482422" xlink:href="#DejaVuSans-68"/>
       <use x="132.861328" xlink:href="#DejaVuSans-65"/>
       <use x="194.384766" xlink:href="#DejaVuSans-69"/>
       <use x="222.167969" xlink:href="#DejaVuSans-6e"/>
       <use x="285.546875" xlink:href="#DejaVuSans-20"/>
       <use x="317.333984" xlink:href="#DejaVuSans-57"/>
       <use x="416.132812" xlink:href="#DejaVuSans-65"/>
       <use x="477.65625" xlink:href="#DejaVuSans-73"/>
       <use x="529.755859" xlink:href="#DejaVuSans-74"/>
       <use x="568.964844" xlink:href="#DejaVuSans-66"/>
       <use x="604.169922" xlink:href="#DejaVuSans-61"/>
       <use x="665.449219" xlink:href="#DejaVuSans-6c"/>
       <use x="693.232422" xlink:href="#DejaVuSans-20"/>
       <use x="725.019531" xlink:href="#DejaVuSans-54"/>
       <use x="786.103516" xlink:href="#DejaVuSans-48"/>
       <use x="861.298828" xlink:href="#DejaVuSans-20"/>
       <use x="893.085938" xlink:href="#DejaVuSans-41"/>
       <use x="961.494141" xlink:href="#DejaVuSans-61"/>
       <use x="1022.773438" xlink:href="#DejaVuSans-63"/>
       <use x="1077.753906" xlink:href="#DejaVuSans-68"/>
       <use x="1141.132812" xlink:href="#DejaVuSans-65"/>
       <use x="1202.65625" xlink:href="#DejaVuSans-6e"/>
      </g>
     </g>
    </g>
    <g id="xtick_6">
     <g id="line2d_6">
      <g>
       <use style="stroke:#000000;stroke-width:0.8;" x="217.015393" xlink:href="#m4b6123f228" y="336.86"/>
      </g>
     </g>
     <g id="text_6">
      <!-- Abu Dhabi Univ -->
      <defs>
       <path d="M 8.5 21.578125 
L 8.5 54.6875 
L 17.484375 54.6875 
L 17.484375 21.921875 
Q 17.484375 14.15625 20.5 10.265625 
Q 23.53125 6.390625 29.59375 6.390625 
Q 36.859375 6.390625 41.078125 11.03125 
Q 45.3125 15.671875 45.3125 23.6875 
L 45.3125 54.6875 
L 54.296875 54.6875 
L 54.296875 0 
L 45.3125 0 
L 45.3125 8.40625 
Q 42.046875 3.421875 37.71875 1 
Q 33.40625 -1.421875 27.6875 -1.421875 
Q 18.265625 -1.421875 13.375 4.4375 
Q 8.5 10.296875 8.5 21.578125 
z
M 31.109375 56 
z
" id="DejaVuSans-75"/>
       <path d="M 19.671875 64.796875 
L 19.671875 8.109375 
L 31.59375 8.109375 
Q 46.6875 8.109375 53.6875 14.9375 
Q 60.6875 21.78125 60.6875 36.53125 
Q 60.6875 51.171875 53.6875 57.984375 
Q 46.6875 64.796875 31.59375 64.796875 
z
M 9.8125 72.90625 
L 30.078125 72.90625 
Q 51.265625 72.90625 61.171875 64.09375 
Q 71.09375 55.28125 71.09375 36.53125 
Q 71.09375 17.671875 61.125 8.828125 
Q 51.171875 0 30.078125 0 
L 9.8125 0 
z
" id="DejaVuSans-44"/>
      </defs>
      <g transform="translate(201.164338 346.458819)rotate(-290)scale(0.1 -0.1)">
       <use xlink:href="#DejaVuSans-41"/>
       <use x="68.408203" xlink:href="#DejaVuSans-62"/>
       <use x="131.884766" xlink:href="#DejaVuSans-75"/>
       <use x="195.263672" xlink:href="#DejaVuSans-20"/>
       <use x="227.050781" xlink:href="#DejaVuSans-44"/>
       <use x="304.052734" xlink:href="#DejaVuSans-68"/>
       <use x="367.431641" xlink:href="#DejaVuSans-61"/>
       <use x="428.710938" xlink:href="#DejaVuSans-62"/>
       <use x="492.1875" xlink:href="#DejaVuSans-69"/>
       <use x="519.970703" xlink:href="#DejaVuSans-20"/>
       <use x="551.757812" xlink:href="#DejaVuSans-55"/>
       <use x="624.951172" xlink:href="#DejaVuSans-6e"/>
       <use x="688.330078" xlink:href="#DejaVuSans-69"/>
       <use x="716.113281" xlink:href="#DejaVuSans-76"/>
      </g>
     </g>
    </g>
    <g id="xtick_7">
     <g id="line2d_7">
      <g>
       <use style="stroke:#000000;stroke-width:0.8;" x="247.759194" xlink:href="#m4b6123f228" y="336.86"/>
      </g>
     </g>
     <g id="text_7">
      <!-- Babol Noshirvani Univ Technol -->
      <defs>
       <path d="M 19.671875 34.8125 
L 19.671875 8.109375 
L 35.5 8.109375 
Q 43.453125 8.109375 47.28125 11.40625 
Q 51.125 14.703125 51.125 21.484375 
Q 51.125 28.328125 47.28125 31.5625 
Q 43.453125 34.8125 35.5 34.8125 
z
M 19.671875 64.796875 
L 19.671875 42.828125 
L 34.28125 42.828125 
Q 41.5 42.828125 45.03125 45.53125 
Q 48.578125 48.25 48.578125 53.8125 
Q 48.578125 59.328125 45.03125 62.0625 
Q 41.5 64.796875 34.28125 64.796875 
z
M 9.8125 72.90625 
L 35.015625 72.90625 
Q 46.296875 72.90625 52.390625 68.21875 
Q 58.5 63.53125 58.5 54.890625 
Q 58.5 48.1875 55.375 44.234375 
Q 52.25 40.28125 46.1875 39.3125 
Q 53.46875 37.75 57.5 32.78125 
Q 61.53125 27.828125 61.53125 20.40625 
Q 61.53125 10.640625 54.890625 5.3125 
Q 48.25 0 35.984375 0 
L 9.8125 0 
z
" id="DejaVuSans-42"/>
       <path d="M 9.8125 72.90625 
L 23.09375 72.90625 
L 55.421875 11.921875 
L 55.421875 72.90625 
L 64.984375 72.90625 
L 64.984375 0 
L 51.703125 0 
L 19.390625 60.984375 
L 19.390625 0 
L 9.8125 0 
z
" id="DejaVuSans-4e"/>
      </defs>
      <g transform="translate(219.065818 346.458819)rotate(-290)scale(0.1 -0.1)">
       <use xlink:href="#DejaVuSans-42"/>
       <use x="68.603516" xlink:href="#DejaVuSans-61"/>
       <use x="129.882812" xlink:href="#DejaVuSans-62"/>
       <use x="193.359375" xlink:href="#DejaVuSans-6f"/>
       <use x="254.541016" xlink:href="#DejaVuSans-6c"/>
       <use x="282.324219" xlink:href="#DejaVuSans-20"/>
       <use x="314.111328" xlink:href="#DejaVuSans-4e"/>
       <use x="388.916016" xlink:href="#DejaVuSans-6f"/>
       <use x="450.097656" xlink:href="#DejaVuSans-73"/>
       <use x="502.197266" xlink:href="#DejaVuSans-68"/>
       <use x="565.576172" xlink:href="#DejaVuSans-69"/>
       <use x="593.359375" xlink:href="#DejaVuSans-72"/>
       <use x="634.472656" xlink:href="#DejaVuSans-76"/>
       <use x="693.652344" xlink:href="#DejaVuSans-61"/>
       <use x="754.931641" xlink:href="#DejaVuSans-6e"/>
       <use x="818.310547" xlink:href="#DejaVuSans-69"/>
       <use x="846.09375" xlink:href="#DejaVuSans-20"/>
       <use x="877.880859" xlink:href="#DejaVuSans-55"/>
       <use x="951.074219" xlink:href="#DejaVuSans-6e"/>
       <use x="1014.453125" xlink:href="#DejaVuSans-69"/>
       <use x="1042.236328" xlink:href="#DejaVuSans-76"/>
       <use x="1101.416016" xlink:href="#DejaVuSans-20"/>
       <use x="1133.203125" xlink:href="#DejaVuSans-54"/>
       <use x="1194.021484" xlink:href="#DejaVuSans-65"/>
       <use x="1255.544922" xlink:href="#DejaVuSans-63"/>
       <use x="1310.525391" xlink:href="#DejaVuSans-68"/>
       <use x="1373.904297" xlink:href="#DejaVuSans-6e"/>
       <use x="1437.283203" xlink:href="#DejaVuSans-6f"/>
       <use x="1498.464844" xlink:href="#DejaVuSans-6c"/>
      </g>
     </g>
    </g>
    <g id="xtick_8">
     <g id="line2d_8">
      <g>
       <use style="stroke:#000000;stroke-width:0.8;" x="278.502996" xlink:href="#m4b6123f228" y="336.86"/>
      </g>
     </g>
     <g id="text_8">
      <!-- Chinese Acad Sci -->
      <defs>
       <path d="M 53.515625 70.515625 
L 53.515625 60.890625 
Q 47.90625 63.578125 42.921875 64.890625 
Q 37.9375 66.21875 33.296875 66.21875 
Q 25.25 66.21875 20.875 63.09375 
Q 16.5 59.96875 16.5 54.203125 
Q 16.5 49.359375 19.40625 46.890625 
Q 22.3125 44.4375 30.421875 42.921875 
L 36.375 41.703125 
Q 47.40625 39.59375 52.65625 34.296875 
Q 57.90625 29 57.90625 20.125 
Q 57.90625 9.515625 50.796875 4.046875 
Q 43.703125 -1.421875 29.984375 -1.421875 
Q 24.8125 -1.421875 18.96875 -0.25 
Q 13.140625 0.921875 6.890625 3.21875 
L 6.890625 13.375 
Q 12.890625 10.015625 18.65625 8.296875 
Q 24.421875 6.59375 29.984375 6.59375 
Q 38.421875 6.59375 43.015625 9.90625 
Q 47.609375 13.234375 47.609375 19.390625 
Q 47.609375 24.75 44.3125 27.78125 
Q 41.015625 30.8125 33.5 32.328125 
L 27.484375 33.5 
Q 16.453125 35.6875 11.515625 40.375 
Q 6.59375 45.0625 6.59375 53.421875 
Q 6.59375 63.09375 13.40625 68.65625 
Q 20.21875 74.21875 32.171875 74.21875 
Q 37.3125 74.21875 42.625 73.28125 
Q 47.953125 72.359375 53.515625 70.515625 
z
" id="DejaVuSans-53"/>
      </defs>
      <g transform="translate(261.246452 346.458819)rotate(-290)scale(0.1 -0.1)">
       <use xlink:href="#DejaVuSans-43"/>
       <use x="69.824219" xlink:href="#DejaVuSans-68"/>
       <use x="133.203125" xlink:href="#DejaVuSans-69"/>
       <use x="160.986328" xlink:href="#DejaVuSans-6e"/>
       <use x="224.365234" xlink:href="#DejaVuSans-65"/>
       <use x="285.888672" xlink:href="#DejaVuSans-73"/>
       <use x="337.988281" xlink:href="#DejaVuSans-65"/>
       <use x="399.511719" xlink:href="#DejaVuSans-20"/>
       <use x="431.298828" xlink:href="#DejaVuSans-41"/>
       <use x="499.691406" xlink:href="#DejaVuSans-63"/>
       <use x="554.671875" xlink:href="#DejaVuSans-61"/>
       <use x="615.951172" xlink:href="#DejaVuSans-64"/>
       <use x="679.427734" xlink:href="#DejaVuSans-20"/>
       <use x="711.214844" xlink:href="#DejaVuSans-53"/>
       <use x="774.691406" xlink:href="#DejaVuSans-63"/>
       <use x="829.671875" xlink:href="#DejaVuSans-69"/>
      </g>
     </g>
    </g>
    <g id="xtick_9">
     <g id="line2d_9">
      <g>
       <use style="stroke:#000000;stroke-width:0.8;" x="309.246798" xlink:href="#m4b6123f228" y="336.86"/>
      </g>
     </g>
     <g id="text_9">
      <!-- Natl Inst Technol -->
      <g transform="translate(292.222988 346.458819)rotate(-290)scale(0.1 -0.1)">
       <use xlink:href="#DejaVuSans-4e"/>
       <use x="74.804688" xlink:href="#DejaVuSans-61"/>
       <use x="136.083984" xlink:href="#DejaVuSans-74"/>
       <use x="175.292969" xlink:href="#DejaVuSans-6c"/>
       <use x="203.076172" xlink:href="#DejaVuSans-20"/>
       <use x="234.863281" xlink:href="#DejaVuSans-49"/>
       <use x="264.355469" xlink:href="#DejaVuSans-6e"/>
       <use x="327.734375" xlink:href="#DejaVuSans-73"/>
       <use x="379.833984" xlink:href="#DejaVuSans-74"/>
       <use x="419.042969" xlink:href="#DejaVuSans-20"/>
       <use x="450.830078" xlink:href="#DejaVuSans-54"/>
       <use x="511.648438" xlink:href="#DejaVuSans-65"/>
       <use x="573.171875" xlink:href="#DejaVuSans-63"/>
       <use x="628.152344" xlink:href="#DejaVuSans-68"/>
       <use x="691.53125" xlink:href="#DejaVuSans-6e"/>
       <use x="754.910156" xlink:href="#DejaVuSans-6f"/>
       <use x="816.091797" xlink:href="#DejaVuSans-6c"/>
      </g>
     </g>
    </g>
    <g id="xtick_10">
     <g id="line2d_10">
      <g>
       <use style="stroke:#000000;stroke-width:0.8;" x="339.990599" xlink:href="#m4b6123f228" y="336.86"/>
      </g>
     </g>
     <g id="text_10">
      <!-- Tech Univ Dresden -->
      <g transform="translate(321.18775 346.458819)rotate(-290)scale(0.1 -0.1)">
       <use xlink:href="#DejaVuSans-54"/>
       <use x="60.818359" xlink:href="#DejaVuSans-65"/>
       <use x="122.341797" xlink:href="#DejaVuSans-63"/>
       <use x="177.322266" xlink:href="#DejaVuSans-68"/>
       <use x="240.701172" xlink:href="#DejaVuSans-20"/>
       <use x="272.488281" xlink:href="#DejaVuSans-55"/>
       <use x="345.681641" xlink:href="#DejaVuSans-6e"/>
       <use x="409.060547" xlink:href="#DejaVuSans-69"/>
       <use x="436.84375" xlink:href="#DejaVuSans-76"/>
       <use x="496.023438" xlink:href="#DejaVuSans-20"/>
       <use x="527.810547" xlink:href="#DejaVuSans-44"/>
       <use x="604.8125" xlink:href="#DejaVuSans-72"/>
       <use x="645.894531" xlink:href="#DejaVuSans-65"/>
       <use x="707.417969" xlink:href="#DejaVuSans-73"/>
       <use x="759.517578" xlink:href="#DejaVuSans-64"/>
       <use x="822.994141" xlink:href="#DejaVuSans-65"/>
       <use x="884.517578" xlink:href="#DejaVuSans-6e"/>
      </g>
     </g>
    </g>
    <g id="xtick_11">
     <g id="line2d_11">
      <g>
       <use style="stroke:#000000;stroke-width:0.8;" x="370.734401" xlink:href="#m4b6123f228" y="336.86"/>
      </g>
     </g>
     <g id="text_11">
      <!-- Univ Nevada -->
      <g transform="translate(357.249965 346.458819)rotate(-290)scale(0.1 -0.1)">
       <use xlink:href="#DejaVuSans-55"/>
       <use x="73.193359" xlink:href="#DejaVuSans-6e"/>
       <use x="136.572266" xlink:href="#DejaVuSans-69"/>
       <use x="164.355469" xlink:href="#DejaVuSans-76"/>
       <use x="223.535156" xlink:href="#DejaVuSans-20"/>
       <use x="255.322266" xlink:href="#DejaVuSans-4e"/>
       <use x="330.126953" xlink:href="#DejaVuSans-65"/>
       <use x="391.650391" xlink:href="#DejaVuSans-76"/>
       <use x="450.830078" xlink:href="#DejaVuSans-61"/>
       <use x="512.109375" xlink:href="#DejaVuSans-64"/>
       <use x="575.585938" xlink:href="#DejaVuSans-61"/>
      </g>
     </g>
    </g>
    <g id="xtick_12">
     <g id="line2d_12">
      <g>
       <use style="stroke:#000000;stroke-width:0.8;" x="401.478202" xlink:href="#m4b6123f228" y="336.86"/>
      </g>
     </g>
     <g id="text_12">
      <!-- Univ Sci &amp; Technol Beijing -->
      <defs>
       <path d="M 24.3125 39.203125 
Q 19.875 35.25 17.796875 31.3125 
Q 15.71875 27.390625 15.71875 23.09375 
Q 15.71875 15.96875 20.890625 11.234375 
Q 26.078125 6.5 33.890625 6.5 
Q 38.53125 6.5 42.578125 8.03125 
Q 46.625 9.578125 50.203125 12.703125 
z
M 31.203125 44.671875 
L 56 19.28125 
Q 58.890625 23.640625 60.5 28.59375 
Q 62.109375 33.546875 62.40625 39.109375 
L 71.484375 39.109375 
Q 70.90625 32.671875 68.359375 26.359375 
Q 65.828125 20.0625 61.28125 13.921875 
L 74.90625 0 
L 62.59375 0 
L 55.609375 7.171875 
Q 50.53125 2.828125 44.96875 0.703125 
Q 39.40625 -1.421875 33.015625 -1.421875 
Q 21.234375 -1.421875 13.765625 5.296875 
Q 6.296875 12.015625 6.296875 22.515625 
Q 6.296875 28.765625 9.5625 34.25 
Q 12.84375 39.75 19.390625 44.578125 
Q 17.046875 47.65625 15.8125 50.703125 
Q 14.59375 53.765625 14.59375 56.6875 
Q 14.59375 64.59375 20.015625 69.40625 
Q 25.4375 74.21875 34.421875 74.21875 
Q 38.484375 74.21875 42.5 73.34375 
Q 46.53125 72.46875 50.6875 70.703125 
L 50.6875 61.8125 
Q 46.4375 64.109375 42.578125 65.296875 
Q 38.71875 66.5 35.40625 66.5 
Q 30.28125 66.5 27.078125 63.78125 
Q 23.875 61.078125 23.875 56.78125 
Q 23.875 54.296875 25.3125 51.78125 
Q 26.765625 49.265625 31.203125 44.671875 
z
" id="DejaVuSans-26"/>
      </defs>
      <g transform="translate(376.512311 346.458819)rotate(-290)scale(0.1 -0.1)">
       <use xlink:href="#DejaVuSans-55"/>
       <use x="73.193359" xlink:href="#DejaVuSans-6e"/>
       <use x="136.572266" xlink:href="#DejaVuSans-69"/>
       <use x="164.355469" xlink:href="#DejaVuSans-76"/>
       <use x="223.535156" xlink:href="#DejaVuSans-20"/>
       <use x="255.322266" xlink:href="#DejaVuSans-53"/>
       <use x="318.798828" xlink:href="#DejaVuSans-63"/>
       <use x="373.779297" xlink:href="#DejaVuSans-69"/>
       <use x="401.5625" xlink:href="#DejaVuSans-20"/>
       <use x="433.349609" xlink:href="#DejaVuSans-26"/>
       <use x="511.328125" xlink:href="#DejaVuSans-20"/>
       <use x="543.115234" xlink:href="#DejaVuSans-54"/>
       <use x="603.933594" xlink:href="#DejaVuSans-65"/>
       <use x="665.457031" xlink:href="#DejaVuSans-63"/>
       <use x="720.4375" xlink:href="#DejaVuSans-68"/>
       <use x="783.816406" xlink:href="#DejaVuSans-6e"/>
       <use x="847.195312" xlink:href="#DejaVuSans-6f"/>
       <use x="908.376953" xlink:href="#DejaVuSans-6c"/>
       <use x="936.160156" xlink:href="#DejaVuSans-20"/>
       <use x="967.947266" xlink:href="#DejaVuSans-42"/>
       <use x="1036.550781" xlink:href="#DejaVuSans-65"/>
       <use x="1098.074219" xlink:href="#DejaVuSans-69"/>
       <use x="1125.857422" xlink:href="#DejaVuSans-6a"/>
       <use x="1153.640625" xlink:href="#DejaVuSans-69"/>
       <use x="1181.423828" xlink:href="#DejaVuSans-6e"/>
       <use x="1244.802734" xlink:href="#DejaVuSans-67"/>
      </g>
     </g>
    </g>
    <g id="xtick_13">
     <g id="line2d_13">
      <g>
       <use style="stroke:#000000;stroke-width:0.8;" x="432.222004" xlink:href="#m4b6123f228" y="336.86"/>
      </g>
     </g>
     <g id="text_13">
      <!-- Ayandegan Inst Higher Educ -->
      <defs>
       <path d="M 32.171875 -5.078125 
Q 28.375 -14.84375 24.75 -17.8125 
Q 21.140625 -20.796875 15.09375 -20.796875 
L 7.90625 -20.796875 
L 7.90625 -13.28125 
L 13.1875 -13.28125 
Q 16.890625 -13.28125 18.9375 -11.515625 
Q 21 -9.765625 23.484375 -3.21875 
L 25.09375 0.875 
L 2.984375 54.6875 
L 12.5 54.6875 
L 29.59375 11.921875 
L 46.6875 54.6875 
L 56.203125 54.6875 
z
" id="DejaVuSans-79"/>
       <path d="M 9.8125 72.90625 
L 55.90625 72.90625 
L 55.90625 64.59375 
L 19.671875 64.59375 
L 19.671875 43.015625 
L 54.390625 43.015625 
L 54.390625 34.71875 
L 19.671875 34.71875 
L 19.671875 8.296875 
L 56.78125 8.296875 
L 56.78125 0 
L 9.8125 0 
z
" id="DejaVuSans-45"/>
      </defs>
      <g transform="translate(405.305529 346.458819)rotate(-290)scale(0.1 -0.1)">
       <use xlink:href="#DejaVuSans-41"/>
       <use x="68.314453" xlink:href="#DejaVuSans-79"/>
       <use x="127.494141" xlink:href="#DejaVuSans-61"/>
       <use x="188.773438" xlink:href="#DejaVuSans-6e"/>
       <use x="252.152344" xlink:href="#DejaVuSans-64"/>
       <use x="315.628906" xlink:href="#DejaVuSans-65"/>
       <use x="377.152344" xlink:href="#DejaVuSans-67"/>
       <use x="440.628906" xlink:href="#DejaVuSans-61"/>
       <use x="501.908203" xlink:href="#DejaVuSans-6e"/>
       <use x="565.287109" xlink:href="#DejaVuSans-20"/>
       <use x="597.074219" xlink:href="#DejaVuSans-49"/>
       <use x="626.566406" xlink:href="#DejaVuSans-6e"/>
       <use x="689.945312" xlink:href="#DejaVuSans-73"/>
       <use x="742.044922" xlink:href="#DejaVuSans-74"/>
       <use x="781.253906" xlink:href="#DejaVuSans-20"/>
       <use x="813.041016" xlink:href="#DejaVuSans-48"/>
       <use x="888.236328" xlink:href="#DejaVuSans-69"/>
       <use x="916.019531" xlink:href="#DejaVuSans-67"/>
       <use x="979.496094" xlink:href="#DejaVuSans-68"/>
       <use x="1042.875" xlink:href="#DejaVuSans-65"/>
       <use x="1104.398438" xlink:href="#DejaVuSans-72"/>
       <use x="1145.511719" xlink:href="#DejaVuSans-20"/>
       <use x="1177.298828" xlink:href="#DejaVuSans-45"/>
       <use x="1240.482422" xlink:href="#DejaVuSans-64"/>
       <use x="1303.958984" xlink:href="#DejaVuSans-75"/>
       <use x="1367.337891" xlink:href="#DejaVuSans-63"/>
      </g>
     </g>
    </g>
    <g id="xtick_14">
     <g id="line2d_14">
      <g>
       <use style="stroke:#000000;stroke-width:0.8;" x="462.965806" xlink:href="#m4b6123f228" y="336.86"/>
      </g>
     </g>
     <g id="text_14">
      <!-- Beijing Univ Technol -->
      <g transform="translate(442.921531 346.458819)rotate(-290)scale(0.1 -0.1)">
       <use xlink:href="#DejaVuSans-42"/>
       <use x="68.603516" xlink:href="#DejaVuSans-65"/>
       <use x="130.126953" xlink:href="#DejaVuSans-69"/>
       <use x="157.910156" xlink:href="#DejaVuSans-6a"/>
       <use x="185.693359" xlink:href="#DejaVuSans-69"/>
       <use x="213.476562" xlink:href="#DejaVuSans-6e"/>
       <use x="276.855469" xlink:href="#DejaVuSans-67"/>
       <use x="340.332031" xlink:href="#DejaVuSans-20"/>
       <use x="372.119141" xlink:href="#DejaVuSans-55"/>
       <use x="445.3125" xlink:href="#DejaVuSans-6e"/>
       <use x="508.691406" xlink:href="#DejaVuSans-69"/>
       <use x="536.474609" xlink:href="#DejaVuSans-76"/>
       <use x="595.654297" xlink:href="#DejaVuSans-20"/>
       <use x="627.441406" xlink:href="#DejaVuSans-54"/>
       <use x="688.259766" xlink:href="#DejaVuSans-65"/>
       <use x="749.783203" xlink:href="#DejaVuSans-63"/>
       <use x="804.763672" xlink:href="#DejaVuSans-68"/>
       <use x="868.142578" xlink:href="#DejaVuSans-6e"/>
       <use x="931.521484" xlink:href="#DejaVuSans-6f"/>
       <use x="992.703125" xlink:href="#DejaVuSans-6c"/>
      </g>
     </g>
    </g>
    <g id="xtick_15">
     <g id="line2d_15">
      <g>
       <use style="stroke:#000000;stroke-width:0.8;" x="493.709607" xlink:href="#m4b6123f228" y="336.86"/>
      </g>
     </g>
     <g id="text_15">
      <!-- Chongqing Univ -->
      <defs>
       <path d="M 14.796875 27.296875 
Q 14.796875 17.390625 18.875 11.75 
Q 22.953125 6.109375 30.078125 6.109375 
Q 37.203125 6.109375 41.296875 11.75 
Q 45.40625 17.390625 45.40625 27.296875 
Q 45.40625 37.203125 41.296875 42.84375 
Q 37.203125 48.484375 30.078125 48.484375 
Q 22.953125 48.484375 18.875 42.84375 
Q 14.796875 37.203125 14.796875 27.296875 
z
M 45.40625 8.203125 
Q 42.578125 3.328125 38.25 0.953125 
Q 33.9375 -1.421875 27.875 -1.421875 
Q 17.96875 -1.421875 11.734375 6.484375 
Q 5.515625 14.40625 5.515625 27.296875 
Q 5.515625 40.1875 11.734375 48.09375 
Q 17.96875 56 27.875 56 
Q 33.9375 56 38.25 53.625 
Q 42.578125 51.265625 45.40625 46.390625 
L 45.40625 54.6875 
L 54.390625 54.6875 
L 54.390625 -20.796875 
L 45.40625 -20.796875 
z
" id="DejaVuSans-71"/>
      </defs>
      <g transform="translate(477.526686 346.458819)rotate(-290)scale(0.1 -0.1)">
       <use xlink:href="#DejaVuSans-43"/>
       <use x="69.824219" xlink:href="#DejaVuSans-68"/>
       <use x="133.203125" xlink:href="#DejaVuSans-6f"/>
       <use x="194.384766" xlink:href="#DejaVuSans-6e"/>
       <use x="257.763672" xlink:href="#DejaVuSans-67"/>
       <use x="321.240234" xlink:href="#DejaVuSans-71"/>
       <use x="384.716797" xlink:href="#DejaVuSans-69"/>
       <use x="412.5" xlink:href="#DejaVuSans-6e"/>
       <use x="475.878906" xlink:href="#DejaVuSans-67"/>
       <use x="539.355469" xlink:href="#DejaVuSans-20"/>
       <use x="571.142578" xlink:href="#DejaVuSans-55"/>
       <use x="644.335938" xlink:href="#DejaVuSans-6e"/>
       <use x="707.714844" xlink:href="#DejaVuSans-69"/>
       <use x="735.498047" xlink:href="#DejaVuSans-76"/>
      </g>
     </g>
    </g>
    <g id="xtick_16">
     <g id="line2d_16">
      <g>
       <use style="stroke:#000000;stroke-width:0.8;" x="524.453409" xlink:href="#m4b6123f228" y="336.86"/>
      </g>
     </g>
     <g id="text_16">
      <!-- Colorado Sch Mines -->
      <defs>
       <path d="M 9.8125 72.90625 
L 24.515625 72.90625 
L 43.109375 23.296875 
L 61.8125 72.90625 
L 76.515625 72.90625 
L 76.515625 0 
L 66.890625 0 
L 66.890625 64.015625 
L 48.09375 14.015625 
L 38.1875 14.015625 
L 19.390625 64.015625 
L 19.390625 0 
L 9.8125 0 
z
" id="DejaVuSans-4d"/>
      </defs>
      <g transform="translate(505.041337 346.458819)rotate(-290)scale(0.1 -0.1)">
       <use xlink:href="#DejaVuSans-43"/>
       <use x="69.824219" xlink:href="#DejaVuSans-6f"/>
       <use x="131.005859" xlink:href="#DejaVuSans-6c"/>
       <use x="158.789062" xlink:href="#DejaVuSans-6f"/>
       <use x="219.970703" xlink:href="#DejaVuSans-72"/>
       <use x="261.083984" xlink:href="#DejaVuSans-61"/>
       <use x="322.363281" xlink:href="#DejaVuSans-64"/>
       <use x="385.839844" xlink:href="#DejaVuSans-6f"/>
       <use x="447.021484" xlink:href="#DejaVuSans-20"/>
       <use x="478.808594" xlink:href="#DejaVuSans-53"/>
       <use x="542.285156" xlink:href="#DejaVuSans-63"/>
       <use x="597.265625" xlink:href="#DejaVuSans-68"/>
       <use x="660.644531" xlink:href="#DejaVuSans-20"/>
       <use x="692.431641" xlink:href="#DejaVuSans-4d"/>
       <use x="778.710938" xlink:href="#DejaVuSans-69"/>
       <use x="806.494141" xlink:href="#DejaVuSans-6e"/>
       <use x="869.873047" xlink:href="#DejaVuSans-65"/>
       <use x="931.396484" xlink:href="#DejaVuSans-73"/>
      </g>
     </g>
    </g>
    <g id="xtick_17">
     <g id="line2d_17">
      <g>
       <use style="stroke:#000000;stroke-width:0.8;" x="555.197211" xlink:href="#m4b6123f228" y="336.86"/>
      </g>
     </g>
     <g id="text_17">
      <!-- Duy Tan Univ -->
      <g transform="translate(541.109965 346.458819)rotate(-290)scale(0.1 -0.1)">
       <use xlink:href="#DejaVuSans-44"/>
       <use x="77.001953" xlink:href="#DejaVuSans-75"/>
       <use x="140.380859" xlink:href="#DejaVuSans-79"/>
       <use x="199.560547" xlink:href="#DejaVuSans-20"/>
       <use x="231.347656" xlink:href="#DejaVuSans-54"/>
       <use x="292.181641" xlink:href="#DejaVuSans-61"/>
       <use x="353.460938" xlink:href="#DejaVuSans-6e"/>
       <use x="416.839844" xlink:href="#DejaVuSans-20"/>
       <use x="448.626953" xlink:href="#DejaVuSans-55"/>
       <use x="521.820312" xlink:href="#DejaVuSans-6e"/>
       <use x="585.199219" xlink:href="#DejaVuSans-69"/>
       <use x="612.982422" xlink:href="#DejaVuSans-76"/>
      </g>
     </g>
    </g>
    <g id="xtick_18">
     <g id="line2d_18">
      <g>
       <use style="stroke:#000000;stroke-width:0.8;" x="585.941012" xlink:href="#m4b6123f228" y="336.86"/>
      </g>
     </g>
     <g id="text_18">
      <!-- Indian Inst Technol -->
      <g transform="translate(567.109306 346.458819)rotate(-290)scale(0.1 -0.1)">
       <use xlink:href="#DejaVuSans-49"/>
       <use x="29.492188" xlink:href="#DejaVuSans-6e"/>
       <use x="92.871094" xlink:href="#DejaVuSans-64"/>
       <use x="156.347656" xlink:href="#DejaVuSans-69"/>
       <use x="184.130859" xlink:href="#DejaVuSans-61"/>
       <use x="245.410156" xlink:href="#DejaVuSans-6e"/>
       <use x="308.789062" xlink:href="#DejaVuSans-20"/>
       <use x="340.576172" xlink:href="#DejaVuSans-49"/>
       <use x="370.068359" xlink:href="#DejaVuSans-6e"/>
       <use x="433.447266" xlink:href="#DejaVuSans-73"/>
       <use x="485.546875" xlink:href="#DejaVuSans-74"/>
       <use x="524.755859" xlink:href="#DejaVuSans-20"/>
       <use x="556.542969" xlink:href="#DejaVuSans-54"/>
       <use x="617.361328" xlink:href="#DejaVuSans-65"/>
       <use x="678.884766" xlink:href="#DejaVuSans-63"/>
       <use x="733.865234" xlink:href="#DejaVuSans-68"/>
       <use x="797.244141" xlink:href="#DejaVuSans-6e"/>
       <use x="860.623047" xlink:href="#DejaVuSans-6f"/>
       <use x="921.804688" xlink:href="#DejaVuSans-6c"/>
      </g>
     </g>
    </g>
    <g id="xtick_19">
     <g id="line2d_19">
      <g>
       <use style="stroke:#000000;stroke-width:0.8;" x="616.684814" xlink:href="#m4b6123f228" y="336.86"/>
      </g>
     </g>
     <g id="text_19">
      <!-- Liaoning Tech Univ -->
      <defs>
       <path d="M 9.8125 72.90625 
L 19.671875 72.90625 
L 19.671875 8.296875 
L 55.171875 8.296875 
L 55.171875 0 
L 9.8125 0 
z
" id="DejaVuSans-4c"/>
      </defs>
      <g transform="translate(597.815432 346.458819)rotate(-290)scale(0.1 -0.1)">
       <use xlink:href="#DejaVuSans-4c"/>
       <use x="55.712891" xlink:href="#DejaVuSans-69"/>
       <use x="83.496094" xlink:href="#DejaVuSans-61"/>
       <use x="144.775391" xlink:href="#DejaVuSans-6f"/>
       <use x="205.957031" xlink:href="#DejaVuSans-6e"/>
       <use x="269.335938" xlink:href="#DejaVuSans-69"/>
       <use x="297.119141" xlink:href="#DejaVuSans-6e"/>
       <use x="360.498047" xlink:href="#DejaVuSans-67"/>
       <use x="423.974609" xlink:href="#DejaVuSans-20"/>
       <use x="455.761719" xlink:href="#DejaVuSans-54"/>
       <use x="516.580078" xlink:href="#DejaVuSans-65"/>
       <use x="578.103516" xlink:href="#DejaVuSans-63"/>
       <use x="633.083984" xlink:href="#DejaVuSans-68"/>
       <use x="696.462891" xlink:href="#DejaVuSans-20"/>
       <use x="728.25" xlink:href="#DejaVuSans-55"/>
       <use x="801.443359" xlink:href="#DejaVuSans-6e"/>
       <use x="864.822266" xlink:href="#DejaVuSans-69"/>
       <use x="892.605469" xlink:href="#DejaVuSans-76"/>
      </g>
     </g>
    </g>
    <g id="xtick_20">
     <g id="line2d_20">
      <g>
       <use style="stroke:#000000;stroke-width:0.8;" x="647.428616" xlink:href="#m4b6123f228" y="336.86"/>
      </g>
     </g>
     <g id="text_20">
      <!-- Lorestan Univ -->
      <g transform="translate(633.022863 346.458819)rotate(-290)scale(0.1 -0.1)">
       <use xlink:href="#DejaVuSans-4c"/>
       <use x="55.697266" xlink:href="#DejaVuSans-6f"/>
       <use x="116.878906" xlink:href="#DejaVuSans-72"/>
       <use x="157.960938" xlink:href="#DejaVuSans-65"/>
       <use x="219.484375" xlink:href="#DejaVuSans-73"/>
       <use x="271.583984" xlink:href="#DejaVuSans-74"/>
       <use x="310.792969" xlink:href="#DejaVuSans-61"/>
       <use x="372.072266" xlink:href="#DejaVuSans-6e"/>
       <use x="435.451172" xlink:href="#DejaVuSans-20"/>
       <use x="467.238281" xlink:href="#DejaVuSans-55"/>
       <use x="540.431641" xlink:href="#DejaVuSans-6e"/>
       <use x="603.810547" xlink:href="#DejaVuSans-69"/>
       <use x="631.59375" xlink:href="#DejaVuSans-76"/>
      </g>
     </g>
    </g>
   </g>
   <g id="matplotlib.axis_2">
    <g id="ytick_1">
     <g id="line2d_21">
      <defs>
       <path d="M 0 0 
L -3.5 0 
" id="m49688931ee" style="stroke:#000000;stroke-width:0.8;"/>
      </defs>
      <g>
       <use style="stroke:#000000;stroke-width:0.8;" x="20.5625" xlink:href="#m49688931ee" y="336.86"/>
      </g>
     </g>
     <g id="text_21">
      <!-- 0 -->
      <defs>
       <path d="M 31.78125 66.40625 
Q 24.171875 66.40625 20.328125 58.90625 
Q 16.5 51.421875 16.5 36.375 
Q 16.5 21.390625 20.328125 13.890625 
Q 24.171875 6.390625 31.78125 6.390625 
Q 39.453125 6.390625 43.28125 13.890625 
Q 47.125 21.390625 47.125 36.375 
Q 47.125 51.421875 43.28125 58.90625 
Q 39.453125 66.40625 31.78125 66.40625 
z
M 31.78125 74.21875 
Q 44.046875 74.21875 50.515625 64.515625 
Q 56.984375 54.828125 56.984375 36.375 
Q 56.984375 17.96875 50.515625 8.265625 
Q 44.046875 -1.421875 31.78125 -1.421875 
Q 19.53125 -1.421875 13.0625 8.265625 
Q 6.59375 17.96875 6.59375 36.375 
Q 6.59375 54.828125 13.0625 64.515625 
Q 19.53125 74.21875 31.78125 74.21875 
z
" id="DejaVuSans-30"/>
      </defs>
      <g transform="translate(7.2 340.659219)scale(0.1 -0.1)">
       <use xlink:href="#DejaVuSans-30"/>
      </g>
     </g>
    </g>
    <g id="ytick_2">
     <g id="line2d_22">
      <g>
       <use style="stroke:#000000;stroke-width:0.8;" x="20.5625" xlink:href="#m49688931ee" y="298.031429"/>
      </g>
     </g>
     <g id="text_22">
      <!-- 1 -->
      <defs>
       <path d="M 12.40625 8.296875 
L 28.515625 8.296875 
L 28.515625 63.921875 
L 10.984375 60.40625 
L 10.984375 69.390625 
L 28.421875 72.90625 
L 38.28125 72.90625 
L 38.28125 8.296875 
L 54.390625 8.296875 
L 54.390625 0 
L 12.40625 0 
z
" id="DejaVuSans-31"/>
      </defs>
      <g transform="translate(7.2 301.830647)scale(0.1 -0.1)">
       <use xlink:href="#DejaVuSans-31"/>
      </g>
     </g>
    </g>
    <g id="ytick_3">
     <g id="line2d_23">
      <g>
       <use style="stroke:#000000;stroke-width:0.8;" x="20.5625" xlink:href="#m49688931ee" y="259.202857"/>
      </g>
     </g>
     <g id="text_23">
      <!-- 2 -->
      <defs>
       <path d="M 19.1875 8.296875 
L 53.609375 8.296875 
L 53.609375 0 
L 7.328125 0 
L 7.328125 8.296875 
Q 12.9375 14.109375 22.625 23.890625 
Q 32.328125 33.6875 34.8125 36.53125 
Q 39.546875 41.84375 41.421875 45.53125 
Q 43.3125 49.21875 43.3125 52.78125 
Q 43.3125 58.59375 39.234375 62.25 
Q 35.15625 65.921875 28.609375 65.921875 
Q 23.96875 65.921875 18.8125 64.3125 
Q 13.671875 62.703125 7.8125 59.421875 
L 7.8125 69.390625 
Q 13.765625 71.78125 18.9375 73 
Q 24.125 74.21875 28.421875 74.21875 
Q 39.75 74.21875 46.484375 68.546875 
Q 53.21875 62.890625 53.21875 53.421875 
Q 53.21875 48.921875 51.53125 44.890625 
Q 49.859375 40.875 45.40625 35.40625 
Q 44.1875 33.984375 37.640625 27.21875 
Q 31.109375 20.453125 19.1875 8.296875 
z
" id="DejaVuSans-32"/>
      </defs>
      <g transform="translate(7.2 263.002076)scale(0.1 -0.1)">
       <use xlink:href="#DejaVuSans-32"/>
      </g>
     </g>
    </g>
    <g id="ytick_4">
     <g id="line2d_24">
      <g>
       <use style="stroke:#000000;stroke-width:0.8;" x="20.5625" xlink:href="#m49688931ee" y="220.374286"/>
      </g>
     </g>
     <g id="text_24">
      <!-- 3 -->
      <defs>
       <path d="M 40.578125 39.3125 
Q 47.65625 37.796875 51.625 33 
Q 55.609375 28.21875 55.609375 21.1875 
Q 55.609375 10.40625 48.1875 4.484375 
Q 40.765625 -1.421875 27.09375 -1.421875 
Q 22.515625 -1.421875 17.65625 -0.515625 
Q 12.796875 0.390625 7.625 2.203125 
L 7.625 11.71875 
Q 11.71875 9.328125 16.59375 8.109375 
Q 21.484375 6.890625 26.8125 6.890625 
Q 36.078125 6.890625 40.9375 10.546875 
Q 45.796875 14.203125 45.796875 21.1875 
Q 45.796875 27.640625 41.28125 31.265625 
Q 36.765625 34.90625 28.71875 34.90625 
L 20.21875 34.90625 
L 20.21875 43.015625 
L 29.109375 43.015625 
Q 36.375 43.015625 40.234375 45.921875 
Q 44.09375 48.828125 44.09375 54.296875 
Q 44.09375 59.90625 40.109375 62.90625 
Q 36.140625 65.921875 28.71875 65.921875 
Q 24.65625 65.921875 20.015625 65.03125 
Q 15.375 64.15625 9.8125 62.3125 
L 9.8125 71.09375 
Q 15.4375 72.65625 20.34375 73.4375 
Q 25.25 74.21875 29.59375 74.21875 
Q 40.828125 74.21875 47.359375 69.109375 
Q 53.90625 64.015625 53.90625 55.328125 
Q 53.90625 49.265625 50.4375 45.09375 
Q 46.96875 40.921875 40.578125 39.3125 
z
" id="DejaVuSans-33"/>
      </defs>
      <g transform="translate(7.2 224.173504)scale(0.1 -0.1)">
       <use xlink:href="#DejaVuSans-33"/>
      </g>
     </g>
    </g>
    <g id="ytick_5">
     <g id="line2d_25">
      <g>
       <use style="stroke:#000000;stroke-width:0.8;" x="20.5625" xlink:href="#m49688931ee" y="181.545714"/>
      </g>
     </g>
     <g id="text_25">
      <!-- 4 -->
      <defs>
       <path d="M 37.796875 64.3125 
L 12.890625 25.390625 
L 37.796875 25.390625 
z
M 35.203125 72.90625 
L 47.609375 72.90625 
L 47.609375 25.390625 
L 58.015625 25.390625 
L 58.015625 17.1875 
L 47.609375 17.1875 
L 47.609375 0 
L 37.796875 0 
L 37.796875 17.1875 
L 4.890625 17.1875 
L 4.890625 26.703125 
z
" id="DejaVuSans-34"/>
      </defs>
      <g transform="translate(7.2 185.344933)scale(0.1 -0.1)">
       <use xlink:href="#DejaVuSans-34"/>
      </g>
     </g>
    </g>
    <g id="ytick_6">
     <g id="line2d_26">
      <g>
       <use style="stroke:#000000;stroke-width:0.8;" x="20.5625" xlink:href="#m49688931ee" y="142.717143"/>
      </g>
     </g>
     <g id="text_26">
      <!-- 5 -->
      <defs>
       <path d="M 10.796875 72.90625 
L 49.515625 72.90625 
L 49.515625 64.59375 
L 19.828125 64.59375 
L 19.828125 46.734375 
Q 21.96875 47.46875 24.109375 47.828125 
Q 26.265625 48.1875 28.421875 48.1875 
Q 40.625 48.1875 47.75 41.5 
Q 54.890625 34.8125 54.890625 23.390625 
Q 54.890625 11.625 47.5625 5.09375 
Q 40.234375 -1.421875 26.90625 -1.421875 
Q 22.3125 -1.421875 17.546875 -0.640625 
Q 12.796875 0.140625 7.71875 1.703125 
L 7.71875 11.625 
Q 12.109375 9.234375 16.796875 8.0625 
Q 21.484375 6.890625 26.703125 6.890625 
Q 35.15625 6.890625 40.078125 11.328125 
Q 45.015625 15.765625 45.015625 23.390625 
Q 45.015625 31 40.078125 35.4375 
Q 35.15625 39.890625 26.703125 39.890625 
Q 22.75 39.890625 18.8125 39.015625 
Q 14.890625 38.140625 10.796875 36.28125 
z
" id="DejaVuSans-35"/>
      </defs>
      <g transform="translate(7.2 146.516362)scale(0.1 -0.1)">
       <use xlink:href="#DejaVuSans-35"/>
      </g>
     </g>
    </g>
    <g id="ytick_7">
     <g id="line2d_27">
      <g>
       <use style="stroke:#000000;stroke-width:0.8;" x="20.5625" xlink:href="#m49688931ee" y="103.888571"/>
      </g>
     </g>
     <g id="text_27">
      <!-- 6 -->
      <defs>
       <path d="M 33.015625 40.375 
Q 26.375 40.375 22.484375 35.828125 
Q 18.609375 31.296875 18.609375 23.390625 
Q 18.609375 15.53125 22.484375 10.953125 
Q 26.375 6.390625 33.015625 6.390625 
Q 39.65625 6.390625 43.53125 10.953125 
Q 47.40625 15.53125 47.40625 23.390625 
Q 47.40625 31.296875 43.53125 35.828125 
Q 39.65625 40.375 33.015625 40.375 
z
M 52.59375 71.296875 
L 52.59375 62.3125 
Q 48.875 64.0625 45.09375 64.984375 
Q 41.3125 65.921875 37.59375 65.921875 
Q 27.828125 65.921875 22.671875 59.328125 
Q 17.53125 52.734375 16.796875 39.40625 
Q 19.671875 43.65625 24.015625 45.921875 
Q 28.375 48.1875 33.59375 48.1875 
Q 44.578125 48.1875 50.953125 41.515625 
Q 57.328125 34.859375 57.328125 23.390625 
Q 57.328125 12.15625 50.6875 5.359375 
Q 44.046875 -1.421875 33.015625 -1.421875 
Q 20.359375 -1.421875 13.671875 8.265625 
Q 6.984375 17.96875 6.984375 36.375 
Q 6.984375 53.65625 15.1875 63.9375 
Q 23.390625 74.21875 37.203125 74.21875 
Q 40.921875 74.21875 44.703125 73.484375 
Q 48.484375 72.75 52.59375 71.296875 
z
" id="DejaVuSans-36"/>
      </defs>
      <g transform="translate(7.2 107.68779)scale(0.1 -0.1)">
       <use xlink:href="#DejaVuSans-36"/>
      </g>
     </g>
    </g>
    <g id="ytick_8">
     <g id="line2d_28">
      <g>
       <use style="stroke:#000000;stroke-width:0.8;" x="20.5625" xlink:href="#m49688931ee" y="65.06"/>
      </g>
     </g>
     <g id="text_28">
      <!-- 7 -->
      <defs>
       <path d="M 8.203125 72.90625 
L 55.078125 72.90625 
L 55.078125 68.703125 
L 28.609375 0 
L 18.3125 0 
L 43.21875 64.59375 
L 8.203125 64.59375 
z
" id="DejaVuSans-37"/>
      </defs>
      <g transform="translate(7.2 68.859219)scale(0.1 -0.1)">
       <use xlink:href="#DejaVuSans-37"/>
      </g>
     </g>
    </g>
    <g id="ytick_9">
     <g id="line2d_29">
      <g>
       <use style="stroke:#000000;stroke-width:0.8;" x="20.5625" xlink:href="#m49688931ee" y="26.231429"/>
      </g>
     </g>
     <g id="text_29">
      <!-- 8 -->
      <defs>
       <path d="M 31.78125 34.625 
Q 24.75 34.625 20.71875 30.859375 
Q 16.703125 27.09375 16.703125 20.515625 
Q 16.703125 13.921875 20.71875 10.15625 
Q 24.75 6.390625 31.78125 6.390625 
Q 38.8125 6.390625 42.859375 10.171875 
Q 46.921875 13.96875 46.921875 20.515625 
Q 46.921875 27.09375 42.890625 30.859375 
Q 38.875 34.625 31.78125 34.625 
z
M 21.921875 38.8125 
Q 15.578125 40.375 12.03125 44.71875 
Q 8.5 49.078125 8.5 55.328125 
Q 8.5 64.0625 14.71875 69.140625 
Q 20.953125 74.21875 31.78125 74.21875 
Q 42.671875 74.21875 48.875 69.140625 
Q 55.078125 64.0625 55.078125 55.328125 
Q 55.078125 49.078125 51.53125 44.71875 
Q 48 40.375 41.703125 38.8125 
Q 48.828125 37.15625 52.796875 32.3125 
Q 56.78125 27.484375 56.78125 20.515625 
Q 56.78125 9.90625 50.3125 4.234375 
Q 43.84375 -1.421875 31.78125 -1.421875 
Q 19.734375 -1.421875 13.25 4.234375 
Q 6.78125 9.90625 6.78125 20.515625 
Q 6.78125 27.484375 10.78125 32.3125 
Q 14.796875 37.15625 21.921875 38.8125 
z
M 18.3125 54.390625 
Q 18.3125 48.734375 21.84375 45.5625 
Q 25.390625 42.390625 31.78125 42.390625 
Q 38.140625 42.390625 41.71875 45.5625 
Q 45.3125 48.734375 45.3125 54.390625 
Q 45.3125 60.0625 41.71875 63.234375 
Q 38.140625 66.40625 31.78125 66.40625 
Q 25.390625 66.40625 21.84375 63.234375 
Q 18.3125 60.0625 18.3125 54.390625 
z
" id="DejaVuSans-38"/>
      </defs>
      <g transform="translate(7.2 30.030647)scale(0.1 -0.1)">
       <use xlink:href="#DejaVuSans-38"/>
      </g>
     </g>
    </g>
   </g>
   <g id="patch_23">
    <path d="M 20.5625 336.86 
L 20.5625 10.7 
" style="fill:none;stroke:#000000;stroke-linecap:square;stroke-linejoin:miter;stroke-width:0.8;"/>
   </g>
   <g id="patch_24">
    <path d="M 690.1625 336.86 
L 690.1625 10.7 
" style="fill:none;stroke:#000000;stroke-linecap:square;stroke-linejoin:miter;stroke-width:0.8;"/>
   </g>
   <g id="patch_25">
    <path d="M 20.5625 336.86 
L 690.1625 336.86 
" style="fill:none;stroke:#000000;stroke-linecap:square;stroke-linejoin:miter;stroke-width:0.8;"/>
   </g>
   <g id="patch_26">
    <path d="M 20.5625 10.7 
L 690.1625 10.7 
" style="fill:none;stroke:#000000;stroke-linecap:square;stroke-linejoin:miter;stroke-width:0.8;"/>
   </g>
  </g>
 </g>
 <defs>
  <clipPath id="p646f4af9ec">
   <rect height="326.16" width="669.6" x="20.5625" y="10.7"/>
  </clipPath>
 </defs>
</svg>
